<svg width="48" height="48" viewBox="0 0 48 48" fill="none" xmlns="http://www.w3.org/2000/svg">
<path d="M2.23174 29.4218C-0.743909 26.4549 -0.743919 21.6422 2.23174 18.6752C2.92001 17.989 3.72596 17.4481 4.60178 17.0718L4.60178 12.5853C4.60178 10.3521 5.66323 8.26772 7.08642 6.88753C8.47911 5.59259 10.3521 4.7984 12.4057 4.7984C13.3941 4.7984 14.3634 4.98551 15.266 5.34028L18.3367 2.27864C21.3838 -0.759546 26.3218 -0.75955 29.3689 2.27865C30.0992 3.00676 30.6702 3.86465 31.0591 4.79835H35.5505C39.8111 4.79835 43.2751 8.24372 43.2751 12.5062C43.2751 13.5548 43.061 14.5813 42.657 15.5274L45.7354 18.5968C48.7549 21.6074 48.7549 26.4909 45.7354 29.5015C45.0229 30.2119 44.1858 30.7691 43.2755 31.1519V35.5178C43.2755 39.7275 39.8544 43.1301 35.6467 43.1301C34.6145 43.1301 33.6037 42.9213 32.6711 42.5272L29.4162 45.7725C26.4375 48.7425 21.6104 48.7425 18.6316 45.7725C17.8712 45.0143 17.2876 44.1124 16.9075 43.1305H12.4548C8.2561 43.1305 4.84229 39.7351 4.84229 35.5344C4.84229 34.5201 5.04557 33.5273 5.42914 32.6098L2.23174 29.4218Z" fill="#8C99AC"/>
<path d="M15.6469 7.78479C15.4222 7.57598 15.8988 7.95391 15.6469 7.78479L19.7488 3.69494C22.0154 1.43502 25.6902 1.43502 27.9568 3.69494C28.8085 4.54415 29.3683 5.63032 29.5714 6.79835H35.5505C38.7121 6.79835 41.2751 9.35384 41.2751 12.5062C41.2751 13.7243 40.8846 14.9026 40.1723 15.8743L44.3233 20.0131C46.5589 22.2422 46.5589 25.8562 44.3233 28.0852C43.4886 28.9174 42.4225 29.4663 41.2755 29.6692V35.5178C41.2755 38.6174 38.7554 41.1301 35.6467 41.1301C34.4448 41.1301 33.2827 40.7468 32.3246 40.0484L28.0041 44.3562C25.8059 46.5479 22.2419 46.5479 20.0437 44.3562C19.1652 43.4802 18.6071 42.3446 18.4446 41.1305H12.4548C9.35512 41.1305 6.84229 38.625 6.84229 35.5344C6.84229 34.3492 7.21934 33.2033 7.90652 32.2556L3.64388 28.0055C1.45204 25.8201 1.45204 22.2769 3.64387 20.0915C4.45532 19.2825 5.4893 18.747 6.60178 18.5439L6.60178 12.5853C6.60178 10.9582 7.36415 9.4036 8.44829 8.35221C9.48504 7.38824 10.8763 6.7984 12.4057 6.7984C13.5686 6.7984 14.6957 7.14638 15.6469 7.78479Z" fill="white"/>
<path fill-rule="evenodd" clip-rule="evenodd" d="M24 15C21.7909 15 20 16.7909 20 19C20 21.2091 21.7909 23 24 23C26.2091 23 28 21.2091 28 19C28 16.7909 26.2091 15 24 15ZM15 28C15 25.7909 16.7909 24 19 24C21.2091 24 23 25.7909 23 28C23 30.2091 21.2091 32 19 32C16.7909 32 15 30.2091 15 28ZM25 28C25 25.7909 26.7909 24 29 24C31.2091 24 33 25.7909 33 28C33 30.2091 31.2091 32 29 32C26.7909 32 25 30.2091 25 28Z" fill="#8C99AC"/>
</svg>
