<svg width="49" height="48" viewBox="0 0 49 48" fill="none" xmlns="http://www.w3.org/2000/svg">
<path d="M3.23174 29.4218C0.256091 26.4549 0.256081 21.6422 3.23174 18.6752C3.92001 17.989 4.72596 17.4481 5.60178 17.0718L5.60178 12.5853C5.60178 10.3521 6.66323 8.26772 8.08642 6.88753C9.47911 5.59259 11.3521 4.7984 13.4057 4.7984C14.3941 4.7984 15.3634 4.98551 16.266 5.34028L19.3367 2.27864C22.3838 -0.759546 27.3218 -0.75955 30.3689 2.27865C31.0992 3.00676 31.6702 3.86465 32.0591 4.79835H36.5505C40.8111 4.79835 44.2751 8.24372 44.2751 12.5062C44.2751 13.5548 44.061 14.5813 43.657 15.5274L46.7354 18.5968C49.7549 21.6074 49.7549 26.4909 46.7354 29.5015C46.0229 30.2119 45.1858 30.7691 44.2755 31.1519V35.5178C44.2755 39.7275 40.8544 43.1301 36.6467 43.1301C35.6145 43.1301 34.6037 42.9213 33.6711 42.5272L30.4162 45.7725C27.4375 48.7425 22.6104 48.7425 19.6316 45.7725C18.8712 45.0143 18.2876 44.1124 17.9075 43.1305H13.4548C9.2561 43.1305 5.84229 39.7351 5.84229 35.5344C5.84229 34.5201 6.04557 33.5273 6.42914 32.6098L3.23174 29.4218Z" fill="#8C99AC"/>
<path d="M16.6469 7.78479C16.4222 7.57598 16.8988 7.9539 16.6469 7.78479L20.7488 3.69494C23.0154 1.43502 26.6902 1.43502 28.9568 3.69494C29.8085 4.54415 30.3683 5.63032 30.5714 6.79835H36.5505C39.7121 6.79835 42.2751 9.35384 42.2751 12.5062C42.2751 13.7243 41.8846 14.9026 41.1723 15.8743L45.3233 20.0131C47.5589 22.2422 47.5589 25.8562 45.3233 28.0852C44.4886 28.9174 43.4225 29.4663 42.2755 29.6692V35.5178C42.2755 38.6174 39.7554 41.1301 36.6467 41.1301C35.4448 41.1301 34.2827 40.7468 33.3246 40.0484L29.0041 44.3562C26.8059 46.5479 23.2419 46.5479 21.0437 44.3562C20.1652 43.4802 19.6071 42.3446 19.4446 41.1305H13.4548C10.3551 41.1305 7.84229 38.625 7.84229 35.5344C7.84229 34.3492 8.21934 33.2033 8.90652 32.2556L4.64388 28.0055C2.45204 25.8201 2.45204 22.2769 4.64387 20.0915C5.45532 19.2825 6.4893 18.747 7.60178 18.5439L7.60178 12.5853C7.60178 10.9582 8.36415 9.4036 9.44829 8.35221C10.485 7.38824 11.8763 6.7984 13.4057 6.7984C14.5686 6.7984 15.6957 7.14638 16.6469 7.78479Z" fill="white"/>
<path fill-rule="evenodd" clip-rule="evenodd" d="M22.0625 16H24.2539H25.9023H28.0977C28.2266 16 28.3203 16.1211 28.2734 16.2539L22.4414 32.2734L20.1719 30.9648L19.2695 30.4453L17 29.1367L21.6953 16.2539C21.75 16.1055 21.9023 16 22.0625 16ZM28.6602 18.2461C28.7266 18.0742 28.9609 18.0742 29.0273 18.2539L33 29.1406L30.7305 30.4492L29.832 30.9648L27.5625 32.2773L25.6055 26.8984C25.5781 26.8047 25.5781 26.7109 25.6055 26.625L26.7461 23.5L27.5234 21.3711L28.6602 18.2461Z" fill="#8C99AC"/>
</svg>
