<svg width="251" height="358" xmlns="http://www.w3.org/2000/svg" xmlns:svg="http://www.w3.org/2000/svg">
  <rect fill="#E0663F" height="359" id="svg_1" width="252" x="-1" y="-1"/>
  <path d="m19.18,180.37c6.57,-7.82 11.37,-16.91 14.57,-26.68c2.96,-9.74 4.12,-19.92 3.14,-30.14c-0.98,-10.22 -3.83,-20.03 -8.61,-29.07c-4.79,-9.05 -11.28,-17.11 -19.16,-23.5l-10.12,-8.5l0,135.03c7.66,-4.57 14.46,-10.32 20.18,-17.14z" fill="#EF805D" id="svg_2" transform="matrix(1 0 0 1 0 0)"/>
  <path d="m251,184c-8.77,-3.54 -18.67,-6.19 -28.19,-6.12c-9.52,0.06 -18.81,1.88 -27.55,5.56c-8.74,3.68 -16.7,9 -23.23,15.76l-16.89,16.88l40.48,40.47c0.25,0.25 0.51,0.5 0.76,0.76l24.5,-24.5c1.2,-1.2 2.51,-2.07 4.04,-2.72c1.53,-0.65 3.17,-0.97 4.7,-0.96c1.54,0 3.18,0.34 4.71,1c1.54,0.67 2.86,1.55 4.07,2.76l1.54,1.54c1.09,1.1 2.09,2.53 2.75,4.06c0.66,1.54 1,3.18 1.01,4.71c0.01,1.53 -0.32,3.17 -0.96,4.7c-0.65,1.53 -1.52,2.84 -2.72,4.04l-65.57,65.56l0.77,0.77c5.23,5.04 11.43,9.07 18.22,11.92c7.13,2.99 14.68,4.44 22.34,4.48c7.67,0.04 15.32,-1.46 22.2,-4.38c4.67,-1.92 9.05,-4.41 13.02,-7.41l0,-138.88z" fill="#EF805D" id="svg_3" transform="matrix(1 0 0 1 0 0)"/>
  <path d="m132.44,341.94l-1.54,-1.54c-1.1,-1.1 -2.09,-2.53 -2.76,-4.07c-0.66,-1.53 -0.89,-3.07 -1,-4.71c-0.01,-1.53 0.31,-3.17 0.96,-4.7c0.65,-1.53 1.52,-2.84 2.72,-4.04l65.57,-65.57l-0.01,0l0,0l-0.76,-0.76c-5.24,-5.03 -11.43,-9.07 -18.22,-11.91c-7.13,-2.99 -14.69,-4.45 -22.35,-4.49c-7.66,-0.03 -15.31,1.46 -22.2,4.39c-7.1,2.92 -13.53,7.15 -18.87,12.49l-16.66,16.67c-6.76,6.53 -12.08,14.5 -15.76,23.23c-3.68,8.74 -5.61,18.14 -5.56,27.56c-0.07,9.52 1.84,18.83 5.38,27.6c0.81,2.01 1.72,3.98 2.72,5.91l130.85,0l-39.73,-39.73c-0.26,-0.25 -0.52,-0.5 -0.78,-0.76l0.01,-0.01l-0.1,-0.1l-24.51,24.51c-1.2,1.2 -2.51,2.07 -4.04,2.72c-1.52,0.64 -3.17,0.97 -4.7,0.96c-1.53,-0.01 -3.17,-0.35 -4.71,-1.01c-1.42,-0.55 -2.74,-1.44 -3.95,-2.64z" fill="#EF805D" id="svg_4" transform="matrix(1 0 0 1 0 0)"/>
  <path d="m202.16,22.75c6.49,8.59 14.63,15.83 23.89,21.14c7.78,4.58 16.2,7.73 24.95,9.51l0,-54.37l-61.31,-0.03c2.77,8.52 7.02,16.55 12.47,23.75z" fill="#EF805D" id="svg_5"/>
</svg>