<svg width="572" height="48" viewBox="0 0 572 48" fill="none" xmlns="http://www.w3.org/2000/svg">
<g clip-path="url(#clip0_9_2)">
<rect width="572" height="48" fill="#E0663F"/>
<path d="M175.486 11.3744L185.253 3.17836C185.731 2.77754 186.238 2.4992 186.816 2.30689C187.395 2.11458 188.002 2.04474 188.559 2.0908C189.115 2.13685 189.701 2.30538 190.236 2.5898C190.77 2.87422 191.218 3.23152 191.615 3.70471L192.12 4.30696C192.481 4.73713 192.792 5.28319 192.979 5.85912C193.166 6.43505 193.23 7.04084 193.179 7.59703C193.128 8.15321 192.954 8.73925 192.664 9.2757C192.374 9.81215 192.012 10.2626 191.534 10.6634L165.395 32.5966L165.647 32.8969C167.371 34.8715 169.482 36.5115 171.849 37.7369C174.335 39.0234 177.031 39.7668 179.814 39.9971C182.597 40.2274 185.432 39.9015 188.035 39.0361C190.719 38.1772 193.208 36.8219 195.335 35.0365L202.066 29.3886C207.451 24.8703 210.93 18.4329 211.611 11.4838C211.969 8.0308 211.605 4.59802 210.626 1.31453C210.483 0.871322 210.33 0.433047 210.166 1.49308e-06L165.936 7.52477e-07L175.233 11.0787C175.318 11.1765 175.402 11.2751 175.486 11.3744Z" fill="#EF805D"/>
<path d="M149.265 40.2711L148.759 39.6689C148.398 39.2387 148.088 38.6926 147.901 38.1167C147.714 37.5408 147.685 36.978 147.701 36.3788C147.752 35.8226 147.926 35.2366 148.216 34.7001C148.506 34.1637 148.868 33.7132 149.346 33.3124L175.488 11.3767L175.486 11.3744L175.483 11.3769L175.233 11.0787C173.509 9.10422 171.398 7.46429 169.03 6.23894C166.545 4.95246 163.849 4.20901 161.066 3.97873C158.283 3.74845 155.448 4.07437 152.844 4.93977C150.161 5.79859 147.672 7.15387 145.544 8.93933L138.9 14.5143C136.215 16.694 133.999 19.433 132.354 22.4994C130.709 25.5657 129.678 28.9231 129.363 32.3397C129.005 35.7927 129.369 39.2255 130.348 42.509C130.921 44.4297 131.734 46.2744 132.751 48H178.32L165.647 32.8969C165.561 32.7985 165.476 32.6992 165.392 32.5991L165.395 32.5966L165.361 32.5559L155.59 40.7544C155.113 41.1553 154.606 41.4336 154.027 41.6259C153.449 41.8182 152.841 41.8881 152.285 41.842C151.728 41.796 151.143 41.6274 150.608 41.343C150.11 41.1016 149.662 40.7443 149.265 40.2711Z" fill="#EF805D"/>
<path d="M377.948 40.8241L378.378 40.0778C378.686 39.5447 379.132 39.02 379.653 38.6101C380.174 38.2003 380.74 37.9586 381.36 37.7478C381.949 37.5903 382.614 37.5478 383.271 37.6426C383.927 37.7375 384.523 37.9389 385.11 38.2778L401.949 48H420.15C420.506 45.0469 420.265 42.0866 419.497 39.2248C418.707 36.2808 417.327 33.4942 415.48 31.1483C413.61 28.7182 411.303 26.6755 408.688 25.1659L400.524 20.4522C397.3 18.5196 393.675 17.28 389.926 16.75C386.176 16.22 382.355 16.4304 378.737 17.3979C375.066 18.3346 371.682 20.0058 368.677 22.2517C365.673 24.4975 363.156 27.3796 361.278 30.6314C359.401 33.8832 358.164 37.5047 357.721 41.2293C357.454 43.4751 357.425 45.7554 357.676 48L380.651 48L379.785 47.5001C379.198 47.1612 378.726 46.7465 378.316 46.2252C377.905 45.7039 377.609 45.1068 377.451 44.5179C377.293 43.9291 377.25 43.2645 377.344 42.6082C377.408 42.0052 377.609 41.4105 377.948 40.8241Z" fill="#EF805D"/>
<path d="M437.044 41.6044L428.773 36.8291L422.323 48H444.789C442.6 45.4237 439.982 43.237 437.044 41.6044Z" fill="#EF805D"/>
<path d="M477.185 7.56892C474.565 6.0405 472.262 4.04481 470.409 1.60975C470.012 1.08738 469.637 0.550262 469.285 7.99265e-07L516.692 7.34405e-07C513.137 3.55575 508.668 6.14294 503.743 7.46241L494.61 9.90957C491.723 10.6832 488.677 10.8622 485.663 10.4588C482.725 10.099 479.804 9.09734 477.185 7.56892Z" fill="#EF805D"/>
<path d="M441.716 15.4191C438.455 13.6165 435.623 11.0615 433.317 8.11085C431.418 5.68181 429.945 2.92291 428.941 2.92501e-07L468.151 1.35662e-06L472.37 15.7449L463.354 18.1605C459.76 19.1235 455.991 19.4326 452.266 18.965C448.541 18.4974 444.994 17.2811 441.716 15.4191Z" fill="#EF805D"/>
<path d="M46.1707 42.2843C45.0117 39.4527 43.3036 36.929 41.1686 34.7746C39.0336 32.6202 36.4716 30.8966 33.7265 29.7886C30.9205 28.6191 27.9315 28.0036 24.9424 28.0036L15.6093 28.0036C11.8883 27.942 8.16724 28.6807 4.6902 30.0964C3.05044 30.7641 1.4785 31.5823 6.75853e-07 32.5383L0 48H47.7197C47.4474 46.0504 46.9254 44.1282 46.1707 42.2843Z" fill="#EF805D"/>
<path d="M83.804 45.5434C82.34 42.0963 80.2659 38.957 77.5819 36.3102C74.8979 33.6633 71.7868 31.5705 68.3098 30.1547C64.8328 28.739 61.1117 28.0003 57.3907 28.0618H47.9356V48H84.6755C84.4189 47.1723 84.1277 46.3529 83.804 45.5434Z" fill="#EF805D"/>
<path d="M570.411 28.1547C566.934 26.739 563.213 26.0003 559.492 26.0618H550.037V48H572V28.8606C571.479 28.6094 570.95 28.3739 570.411 28.1547Z" fill="#EF805D"/>
<path d="M548.272 40.2843C547.113 37.4527 545.405 34.929 543.27 32.7746C541.135 30.6202 538.573 28.8966 535.828 27.7886C533.022 26.6191 530.033 26.0036 527.044 26.0036L517.711 26.0036C513.99 25.942 510.269 26.6807 506.792 28.0964C503.315 29.5122 500.143 31.605 497.52 34.2519C494.836 36.8987 492.762 40.038 491.298 43.4851C490.678 44.9428 490.19 46.4555 489.833 48H550.012C549.878 45.3693 549.284 42.7564 548.272 40.2843Z" fill="#EF805D"/>
<path d="M58.2023 5.13899L66.4733 9.9143C73.0902 13.7345 80.9709 14.8728 88.3444 12.9461C92.0157 12.0094 95.3997 10.3382 98.4039 8.09238C101.288 5.83873 103.709 3.1184 105.563 2.52336e-07L52.0903 0C53.829 2.06108 55.8959 3.80741 58.2023 5.13899Z" fill="#EF805D"/>
</g>
<defs>
<clipPath id="clip0_9_2">
<rect width="572" height="48" fill="white"/>
</clipPath>
</defs>
</svg>
