<svg width="24" height="24" viewBox="0 0 24 24" fill="none" xmlns="http://www.w3.org/2000/svg">
    <g clip-path="url(#clip0_7612_18268)">
        <path d="M12 2.90625C6.10908 2.90625 0 4.45172 0 7.63355V16.3608C0 19.5427 6.10908 21.0881 12 21.0881C17.8909 21.0881 24 19.5426 24 16.3608V7.6335C24 4.45167 17.8909 2.90625 12 2.90625ZM21.8182 16.3608C21.8182 17.4335 17.091 18.9062 12 18.9062C6.90905 18.9062 2.1818 17.4335 2.1818 16.3608V14.8573C4.48341 16.1094 8.28478 16.7244 12 16.7244C15.7152 16.7244 19.5166 16.1094 21.8182 14.8573V16.3608ZM21.8182 11.9971C21.8182 13.0699 17.091 14.5426 12 14.5426C6.90905 14.5426 2.1818 13.0699 2.1818 11.9971V10.4937C4.48341 11.7458 8.28478 12.3608 12 12.3608C15.7152 12.3608 19.5166 11.7458 21.8182 10.4937V11.9971ZM12 10.179C6.90909 10.179 2.1818 8.70623 2.1818 7.6335C2.1818 6.56077 6.90905 5.08805 12 5.08805C17.091 5.08805 21.8182 6.56077 21.8182 7.6335C21.8182 8.70623 17.0909 10.179 12 10.179Z" fill="#30343A" stroke="white" stroke-width="0.7"/>
    </g>
    <defs>
        <clipPath id="clip0_7612_18268">
            <rect width="24" height="24" fill="white"/>
        </clipPath>
    </defs>
</svg>
