<svg width="20" height="20" viewBox="0 0 20 20" fill="none" xmlns="http://www.w3.org/2000/svg">
    <rect width="20" height="19.9988" rx="9.99939" fill="#30343A"/>
    <path d="M10.0518 7.71011L7.82798 5.51328C7.75255 5.43877 7.67077 5.3721 7.58392 5.31381L8.77035 4.13087C9.42593 3.47721 10.4888 3.47721 11.1444 4.13087C11.3908 4.37649 11.5527 4.69065 11.6114 5.02849C10.7501 5.02849 10.0518 5.72678 10.0518 6.58816V7.71011Z" fill="white"/>
    <path d="M14.6776 7.6536C14.8836 7.37255 14.9966 7.03175 14.9966 6.67942C14.9966 5.76764 14.2553 5.02849 13.3408 5.02849H11.6114C11.6273 5.11978 11.6357 5.2128 11.6361 5.30667L11.6506 8.42801L12.4274 7.65354C13.0493 7.0335 14.0557 7.03353 14.6776 7.6536Z" fill="white"/>
    <path d="M14.9967 11.6436C15.3285 11.5849 15.6368 11.4262 15.8782 11.1855C16.5249 10.5407 16.5249 9.49544 15.8782 8.85071L14.6776 7.6536C14.6292 7.71967 14.5756 7.78243 14.5172 7.84127L12.3444 10.0282L13.3813 10.0282C14.2735 10.0282 14.9967 10.7515 14.9967 11.6436Z" fill="white"/>
    <path d="M12.4078 14.6457C13.0123 14.0429 13.0123 13.0636 12.4078 12.4608L11.6282 11.6835L14.7152 11.669C14.8103 11.6686 14.9044 11.66 14.9967 11.6436V13.3353C14.9967 14.2318 14.2678 14.9586 13.3686 14.9586C13.021 14.9586 12.6849 14.8477 12.4078 14.6457Z" fill="white"/>
    <path d="M8.39312 14.9587C8.44014 15.3098 8.60155 15.6383 8.85566 15.8917C9.49146 16.5256 10.5223 16.5256 11.1581 15.8917L12.4078 14.6457C12.3396 14.596 12.2751 14.5409 12.2148 14.4805L10.0519 12.3141L10.0518 13.3C10.0518 14.2161 9.30918 14.9587 8.39312 14.9587Z" fill="white"/>
    <path d="M5.34511 12.3917C5.14635 12.6658 5.0373 12.9973 5.0373 13.3401C5.0373 14.234 5.7641 14.9587 6.66066 14.9587H8.39312C8.38348 14.8866 8.37865 14.8136 8.37881 14.7402L8.38577 11.6839L7.67528 12.392C7.03116 13.0339 5.98909 13.0338 5.34511 12.3917Z" fill="white"/>
    <path d="M4.96773 8.42577L4.96773 6.7023C4.96773 5.77789 5.71932 5.02851 6.64645 5.02851C6.9828 5.02851 7.30881 5.12916 7.58392 5.31381C6.93703 5.9588 6.93703 7.00654 7.58392 7.65153L8.36257 8.42789L5.27511 8.39939C5.17128 8.39843 5.0684 8.4074 4.96773 8.42577Z" fill="white"/>
    <path d="M7.72688 10.0284L6.57021 10.0283C5.68518 10.0283 4.96773 9.31081 4.96773 8.42577C4.64596 8.48451 4.34689 8.63938 4.11219 8.87339C3.47823 9.50549 3.47823 10.5303 4.11219 11.1624L5.34511 12.3917C5.39826 12.3184 5.45783 12.2492 5.52345 12.185L7.72688 10.0284Z" fill="white"/>
</svg>
