<svg width="20" height="20" viewBox="0 0 20 20" fill="none" xmlns="http://www.w3.org/2000/svg">
<path fill-rule="evenodd" clip-rule="evenodd" d="M1.03906 3.33466C1.03906 2.06901 2.06508 1.04299 3.33073 1.04299L9.09169 1.04298C9.97897 1.0428 10.5505 1.04268 11.0844 1.19517C11.5564 1.32996 11.9991 1.55134 12.3901 1.84802C12.8325 2.18368 13.1753 2.64094 13.7075 3.35088L14.4845 4.38692C14.7591 4.3938 15.0092 4.40513 15.2376 4.42379C15.8321 4.47236 16.3351 4.5737 16.7944 4.80774C17.5392 5.18723 18.1448 5.79278 18.5243 6.53759C18.7583 6.9969 18.8597 7.49992 18.9082 8.09441C18.9198 8.23546 18.9285 8.38475 18.9351 8.54297H17.4974C15.7715 8.54297 14.3724 9.94208 14.3724 11.668C14.3724 13.3939 15.7715 14.793 17.4974 14.793H18.9351C18.9285 14.9512 18.9198 15.1005 18.9082 15.2415C18.8597 15.836 18.7583 16.339 18.5243 16.7983C18.1448 17.5432 17.5392 18.1487 16.7944 18.5282C16.3351 18.7622 15.8321 18.8636 15.2376 18.9121C14.6563 18.9596 13.935 18.9596 13.0249 18.9596H6.96988C6.05977 18.9596 5.33852 18.9596 4.75717 18.9121C4.16268 18.8636 3.65966 18.7622 3.20035 18.5282C2.45554 18.1487 1.84999 17.5432 1.4705 16.7983C1.23646 16.339 1.13512 15.836 1.08655 15.2415C1.03905 14.6602 1.03906 13.9389 1.03906 13.0288V3.33466ZM8.9974 2.29299C10.0114 2.29299 10.3963 2.29864 10.7411 2.39712C11.0641 2.48934 11.367 2.64081 11.6345 2.8438C11.9202 3.06057 12.1557 3.36513 12.7641 4.17633L12.914 4.3763H3.32343C2.75149 4.37238 2.28906 3.90752 2.28906 3.33466C2.28906 2.75936 2.75543 2.29299 3.33073 2.29299H8.9974Z" fill="white"/>
<path d="M18.9554 13.543C18.9557 13.3786 18.9557 13.2073 18.9557 13.0288V10.3048C18.9557 10.1271 18.9557 9.95661 18.9554 9.79297H17.4974C16.4619 9.79297 15.6224 10.6324 15.6224 11.668C15.6224 12.7035 16.4619 13.543 17.4974 13.543H18.9554Z" fill="white"/>
</svg>
